<svg width="368" height="39" viewBox="0 0 368 39" fill="none" xmlns="http://www.w3.org/2000/svg">
<path d="M29.4607 35.7C28.6447 36.708 27.6487 37.476 26.4727 38.004C25.3207 38.532 24.0487 38.796 22.6567 38.796C20.7847 38.796 19.0927 38.388 17.5807 37.572C16.0687 36.78 14.3407 35.364 12.3967 33.324C10.1167 33.036 8.0767 32.304 6.2767 31.128C4.5007 29.952 3.1087 28.44 2.1007 26.592C1.1167 24.72 0.624703 22.656 0.624703 20.4C0.624703 17.928 1.2127 15.708 2.3887 13.74C3.5887 11.748 5.2327 10.188 7.3207 9.06C9.4327 7.932 11.7967 7.368 14.4127 7.368C17.0287 7.368 19.3807 7.932 21.4687 9.06C23.5567 10.188 25.2007 11.748 26.4007 13.74C27.6007 15.708 28.2007 17.928 28.2007 20.4C28.2007 23.328 27.3727 25.896 25.7167 28.104C24.0847 30.312 21.9127 31.848 19.2007 32.712C19.8007 33.336 20.3767 33.78 20.9287 34.044C21.5047 34.332 22.1167 34.476 22.7647 34.476C24.3247 34.476 25.6927 33.852 26.8687 32.604L29.4607 35.7ZM6.5287 20.4C6.5287 21.96 6.8647 23.352 7.5367 24.576C8.2327 25.8 9.1807 26.76 10.3807 27.456C11.5807 28.128 12.9247 28.464 14.4127 28.464C15.9007 28.464 17.2447 28.128 18.4447 27.456C19.6447 26.76 20.5807 25.8 21.2527 24.576C21.9487 23.352 22.2967 21.96 22.2967 20.4C22.2967 18.84 21.9487 17.448 21.2527 16.224C20.5807 15 19.6447 14.052 18.4447 13.38C17.2447 12.684 15.9007 12.336 14.4127 12.336C12.9247 12.336 11.5807 12.684 10.3807 13.38C9.1807 14.052 8.2327 15 7.5367 16.224C6.8647 17.448 6.5287 18.84 6.5287 20.4ZM42.7797 33.432C39.1797 33.432 36.3717 32.436 34.3557 30.444C32.3637 28.452 31.3677 25.608 31.3677 21.912V7.8H37.1997V21.696C37.1997 26.208 39.0717 28.464 42.8157 28.464C44.6397 28.464 46.0317 27.924 46.9917 26.844C47.9517 25.74 48.4317 24.024 48.4317 21.696V7.8H54.1917V21.912C54.1917 25.608 53.1837 28.452 51.1677 30.444C49.1757 32.436 46.3797 33.432 42.7797 33.432ZM75.0235 27.6H63.3235L61.0915 33H55.1155L66.3475 7.8H72.1075L83.3755 33H77.2555L75.0235 27.6ZM73.1875 23.172L69.1915 13.524L65.1955 23.172H73.1875ZM84.99 7.8H90.822V28.248H103.458V33H84.99V7.8ZM134.424 28.32V33H114.912V7.8H133.956V12.48H120.708V17.952H132.408V22.488H120.708V28.32H134.424ZM126.036 0.563999H132.084L125.568 5.748H121.176L126.036 0.563999ZM159.463 33.432C156.847 33.432 154.483 32.868 152.371 31.74C150.283 30.612 148.639 29.064 147.439 27.096C146.263 25.104 145.675 22.872 145.675 20.4C145.675 17.928 146.263 15.708 147.439 13.74C148.639 11.748 150.283 10.188 152.371 9.06C154.483 7.932 156.847 7.368 159.463 7.368C162.079 7.368 164.431 7.932 166.519 9.06C168.607 10.188 170.251 11.748 171.451 13.74C172.651 15.708 173.251 17.928 173.251 20.4C173.251 22.872 172.651 25.104 171.451 27.096C170.251 29.064 168.607 30.612 166.519 31.74C164.431 32.868 162.079 33.432 159.463 33.432ZM159.463 28.464C160.951 28.464 162.295 28.128 163.495 27.456C164.695 26.76 165.631 25.8 166.303 24.576C166.999 23.352 167.347 21.96 167.347 20.4C167.347 18.84 166.999 17.448 166.303 16.224C165.631 15 164.695 14.052 163.495 13.38C162.295 12.684 160.951 12.336 159.463 12.336C157.975 12.336 156.631 12.684 155.431 13.38C154.231 14.052 153.283 15 152.587 16.224C151.915 17.448 151.579 18.84 151.579 20.4C151.579 21.96 151.915 23.352 152.587 24.576C153.283 25.8 154.231 26.76 155.431 27.456C156.631 28.128 157.975 28.464 159.463 28.464ZM208.942 7.8V33H204.154L191.59 17.7V33H185.83V7.8H190.654L203.182 23.1V7.8H208.942ZM225.1 33.432C221.5 33.432 218.692 32.436 216.676 30.444C214.684 28.452 213.688 25.608 213.688 21.912V7.8H219.52V21.696C219.52 26.208 221.392 28.464 225.136 28.464C226.96 28.464 228.352 27.924 229.312 26.844C230.272 25.74 230.752 24.024 230.752 21.696V7.8H236.512V21.912C236.512 25.608 235.504 28.452 233.488 30.444C231.496 32.436 228.7 33.432 225.1 33.432ZM226.72 0.563999H232.768L226.252 5.748H221.86L226.72 0.563999ZM264.207 33L264.171 17.88L256.755 30.336H254.127L246.747 18.204V33H241.275V7.8H246.099L255.531 23.46L264.819 7.8H269.607L269.679 33H264.207ZM294.17 28.32V33H274.658V7.8H293.702V12.48H280.454V17.952H292.154V22.488H280.454V28.32H294.17ZM313.866 33L309.006 25.98H308.718H303.642V33H297.81V7.8H308.718C310.95 7.8 312.882 8.172 314.514 8.916C316.17 9.66 317.442 10.716 318.33 12.084C319.218 13.452 319.662 15.072 319.662 16.944C319.662 18.816 319.206 20.436 318.294 21.804C317.406 23.148 316.134 24.18 314.478 24.9L320.13 33H313.866ZM313.758 16.944C313.758 15.528 313.302 14.448 312.39 13.704C311.478 12.936 310.146 12.552 308.394 12.552H303.642V21.336H308.394C310.146 21.336 311.478 20.952 312.39 20.184C313.302 19.416 313.758 18.336 313.758 16.944ZM335.487 33.432C332.871 33.432 330.507 32.868 328.395 31.74C326.307 30.612 324.663 29.064 323.463 27.096C322.287 25.104 321.699 22.872 321.699 20.4C321.699 17.928 322.287 15.708 323.463 13.74C324.663 11.748 326.307 10.188 328.395 9.06C330.507 7.932 332.871 7.368 335.487 7.368C338.103 7.368 340.455 7.932 342.543 9.06C344.631 10.188 346.275 11.748 347.475 13.74C348.675 15.708 349.275 17.928 349.275 20.4C349.275 22.872 348.675 25.104 347.475 27.096C346.275 29.064 344.631 30.612 342.543 31.74C340.455 32.868 338.103 33.432 335.487 33.432ZM335.487 28.464C336.975 28.464 338.319 28.128 339.519 27.456C340.719 26.76 341.655 25.8 342.327 24.576C343.023 23.352 343.371 21.96 343.371 20.4C343.371 18.84 343.023 17.448 342.327 16.224C341.655 15 340.719 14.052 339.519 13.38C338.319 12.684 336.975 12.336 335.487 12.336C333.999 12.336 332.655 12.684 331.455 13.38C330.255 14.052 329.307 15 328.611 16.224C327.939 17.448 327.603 18.84 327.603 20.4C327.603 21.96 327.939 23.352 328.611 24.576C329.307 25.8 330.255 26.76 331.455 27.456C332.655 28.128 333.999 28.464 335.487 28.464ZM356.392 24.252C356.392 23.004 356.668 21.972 357.22 21.156C357.796 20.34 358.624 19.44 359.704 18.456C360.496 17.736 361.072 17.136 361.432 16.656C361.816 16.152 362.008 15.588 362.008 14.964C362.008 14.076 361.648 13.38 360.928 12.876C360.232 12.348 359.296 12.084 358.12 12.084C356.992 12.084 355.984 12.324 355.096 12.804C354.232 13.26 353.5 13.908 352.9 14.748L348.544 12.192C349.552 10.656 350.908 9.468 352.612 8.628C354.34 7.788 356.38 7.368 358.732 7.368C361.492 7.368 363.7 7.956 365.356 9.132C367.036 10.308 367.876 11.94 367.876 14.028C367.876 15.012 367.708 15.876 367.372 16.62C367.06 17.364 366.664 18 366.184 18.528C365.728 19.032 365.128 19.62 364.384 20.292C363.496 21.084 362.848 21.756 362.44 22.308C362.032 22.836 361.828 23.484 361.828 24.252H356.392ZM359.128 33.288C358.144 33.288 357.316 32.976 356.644 32.352C355.996 31.704 355.672 30.924 355.672 30.012C355.672 29.1 355.996 28.344 356.644 27.744C357.292 27.12 358.12 26.808 359.128 26.808C360.136 26.808 360.964 27.12 361.612 27.744C362.26 28.344 362.584 29.1 362.584 30.012C362.584 30.924 362.248 31.704 361.576 32.352C360.928 32.976 360.112 33.288 359.128 33.288Z" fill="url(#paint0_linear_16_19)"/>
<defs>
<linearGradient id="paint0_linear_16_19" x1="184.5" y1="-2" x2="185" y2="27" gradientUnits="userSpaceOnUse">
<stop offset="0.442708" stop-color="#EF6C00"/>
<stop offset="1" stop-color="#DB6300"/>
</linearGradient>
</defs>
</svg>
